<svg xmlns="http://www.w3.org/2000/svg" xmlns:xlink="http://www.w3.org/1999/xlink" width="72.52" height="80.95" style=""><rect id="backgroundrect" width="100%" height="100%" x="0" y="0" fill="none" stroke="none"/><defs><style>.cls-3{fill:#a0a8d4}</style><linearGradient id="linear-gradient" x1="1.036893589819913" y1="0.024577162383415584" x2="-0.047041152216461816" y2="0.8662790151125119"><stop offset=".58" stop-color="#a0a8d4"/><stop offset=".73" stop-color="#8791c7"/><stop offset=".91" stop-color="#6470b4"/></linearGradient><linearGradient id="linear-gradient-2" x1="42.56999969482422" y1="81.66000366210938" x2="71.95999908447266" y2="49.810001373291016" xlink:href="#linear-gradient"/><linearGradient id="linear-gradient-3" x1="0.49996859147659223" y1="-0.0049413143321975165" x2="0.49996859147659223" y2="1.0030883262436667"><stop offset="0" stop-color="#513eff"/><stop offset=".18" stop-color="#5157ff"/><stop offset=".57" stop-color="#5298ff"/><stop offset="1" stop-color="#52e5ff"/></linearGradient></defs><g class="currentLayer" style=""><title>Layer 1</title><g style="isolation:isolate" id="svg_1" class="" fill="#d50b0b" fill-opacity="1"><g id="Layer_1" data-name="Layer 1" fill="#d50b0b" fill-opacity="1"><path d="M16.21718414228266,34.42790571906165 c0.558161423099131,1.2563697588443756 1.9396109452694792,3.7397205102443696 1.9396109452694792,3.7397205102443696 L34.12718880597602,10.36585332014159 l-15.586657740043224,11.461618852615356 a6.8025923440206535,7.163511782884598 0 0 0 -2.2186916568190447,2.571517050266266 a11.295791799968656,11.895103155374528 0 0 0 -0.10465526683108708,10.028916496038438 z" fill="#d50b0b" id="svg_2" fill-opacity="1"/><path class="cls-3" d="M9.88902900789627,43.58250641800956 a17.77046430791857,18.713296934366227 0 0 0 6.977017788739133,13.599651600122453 l17.240210955974398,12.659211078882217 s-10.7864695013907,-16.36954282283783 -19.884500697906528,-32.658266538381575 a15.621542828986918,16.450361930131912 0 0 1 -1.827978660649653,-5.554476828575135 a8.442191524374351,8.89010180234909 0 0 1 0,-2.6670305407047272 c-0.23721860481713095,0.4628730690479283 -0.6977017788739135,1.4106607818603516 -0.6977017788739135,1.4106607818603516 a20.477547209949357,21.564007264375686 0 0 0 -1.8628637495933484,6.2818487942218795 a36.47584899952819,38.41111753940582 0 0 0 0.055816142309913115,6.928401652574539 z" id="svg_3" fill="#d50b0b" fill-opacity="1"/><path d="M53.87214914810776,45.77931669809417 c-0.558161423099131,-1.2563697588443756 -1.9396109452694792,-3.7397205102443696 -1.9396109452694792,-3.7397205102443696 L35.96214448441441,69.84136909701422 L51.54880222445763,58.38709743597106 a6.8025923440206535,7.163511782884598 0 0 0 2.2186916568190447,-2.571517050266266 a11.295791799968656,11.895103155374528 0 0 0 0.10465526683108708,-10.036263687610626 z" fill="#d50b0b" id="svg_4" fill-opacity="1"/><path class="cls-3" d="M60.20030428249415,36.62471599914626 a17.77046430791857,18.713296934366227 0 0 0 -6.977017788739133,-13.599651600122453 L35.98307553778062,10.36585332014159 s10.77949248360196,16.36954282283783 19.884500697906528,32.658266538381575 a15.621542828986918,16.450361930131912 0 0 1 1.8210016428609141,5.554476828575135 a8.442191524374351,8.89010180234909 0 0 1 0,2.6670305407047272 c0.23721860481713095,-0.4628730690479283 0.6977017788739135,-1.4106607818603516 0.6977017788739135,-1.4106607818603516 a20.477547209949357,21.564007264375686 0 0 0 1.8628637495933484,-6.2818487942218795 a36.47584899952819,38.41111753940582 0 0 0 -0.04883912452117396,-6.928401652574539 z" id="svg_5" fill="#d50b0b" fill-opacity="1"/><path d="M16.32183940911375,24.39898922302321 a6.8025923440206535,7.163511782884598 0 0 1 2.2186916568190447,-2.571517050266266 l15.586657740043224,-11.461618852615356 l-15.970393718423875,27.809120100736617 s-1.395403557747827,-2.483350751399994 -1.9396109452694792,-3.7397205102443696 a11.295791799968656,11.895103155374528 0 0 1 0.10465526683108708,-10.036263687610626 zM9.88902900789627,43.58250641800956 a17.77046430791857,18.713296934366227 0 0 0 6.977017788739133,13.599651600122453 l17.240210955974398,12.659211078882217 s-10.7864695013907,-16.36954282283783 -19.884500697906528,-32.658266538381575 a15.621542828986918,16.450361930131912 0 0 1 -1.827978660649653,-5.554476828575135 a8.442191524374351,8.89010180234909 0 0 1 0,-2.6670305407047272 c-0.23721860481713095,0.4628730690479283 -0.6977017788739135,1.4106607818603516 -0.6977017788739135,1.4106607818603516 a20.477547209949357,21.564007264375686 0 0 0 -1.8628637495933484,6.2818487942218795 a36.47584899952819,38.41111753940582 0 0 0 0.055816142309913115,6.928401652574539 zm43.955212069056536,2.2041574716567993 c-0.558161423099131,-1.2563697588443756 -1.9396109452694792,-3.7397205102443696 -1.9396109452694792,-3.7397205102443696 L35.96214448441441,69.84136909701422 L51.54880222445763,58.38709743597106 a6.8025923440206535,7.163511782884598 0 0 0 2.2186916568190447,-2.571517050266266 a11.295791799968656,11.895103155374528 0 0 0 0.10465526683108708,-10.036263687610626 zm6.328155134386393,-9.154600698947908 a17.77046430791857,18.713296934366227 0 0 0 -6.977017788739133,-13.599651600122453 L35.98307553778062,10.36585332014159 s10.77949248360196,16.36954282283783 19.884500697906528,32.658266538381575 a15.621542828986918,16.450361930131912 0 0 1 1.8210016428609141,5.554476828575135 a8.442191524374351,8.89010180234909 0 0 1 0,2.6670305407047272 c0.23721860481713095,-0.4628730690479283 0.6977017788739135,-1.4106607818603516 0.6977017788739135,-1.4106607818603516 a20.477547209949357,21.564007264375686 0 0 0 1.8628637495933484,-6.2818487942218795 a36.47584899952819,38.41111753940582 0 0 0 -0.04883912452117396,-6.928401652574539 z" style="mix-blend-mode:color" fill="#d50b0b" id="svg_6" fill-opacity="1"/></g></g></g></svg>