<svg version="1" xmlns="http://www.w3.org/2000/svg" width="744" height="744" viewBox="0 0 558.000000 558.000000"><path d="M243.5 18.3c-14.4 10-49.6 34.6-78.4 54.7-28.9 20.1-54.9 38.7-57.8 41.4-14.8 13.5-23.2 35.2-23.9 62.1-.6 26.5 4.7 43.7 23.9 76.3l4.9 8.3 5.9-9.7c3.2-5.3 5.9-9.8 5.9-10.1 0-.2.9-1.6 1.9-3.1 1.1-1.5 23.4-38.3 49.7-81.7C230 66.4 245 41.7 257.9 20.5 267.4 4.8 270.2 0 269.8 0c-.2.1-12 8.3-26.3 18.3zM289 .6c0 .5 4 6.6 8.8 13.6C367 115 475.4 285.9 490 317.3c8.9 19 13.3 37.4 13.3 55.2v11l6.2-12.8c7.6-15.7 13.6-33.2 16.9-49.2 2.2-11 2.4-14.3 2.4-39.5 0-46.3-4.1-69-17.5-98-10.9-23.6-30.5-48.3-49.9-63.2-4.4-3.3-103.1-72.5-116.7-81.8-12-8.1-52.6-36.6-53.9-37.8-1-.8-1.8-1.1-1.8-.6zM48.3 187.7c-7.3 15.1-12.1 28.6-16 44.9-2.7 11.7-2.8 12.5-2.8 42.4 0 16.8.4 34.1.8 38.5 4.5 44.3 21.8 81 52.8 111.5 10.7 10.6 12.7 12 52.4 39.6 38.7 27 101.7 70.9 118.6 82.7 7.7 5.4 14.3 9.7 14.5 9.4.2-.2-1-2.4-2.8-4.8-4.3-5.8-66.5-99-79.8-119.4-49.1-75.6-109-172.8-117.6-191-8.9-18.9-13.6-38.2-13.6-55.3 0-6.1-.1-11.2-.2-11.2s-2.9 5.7-6.3 12.7zM437.9 309.8c-4.2 7-18.8 31.1-32.4 53.7-56.7 93.7-74 122.4-78 129-2.3 3.8-11.9 19.8-21.4 35.5-9.5 15.7-17.6 28.9-17.9 29.4-.7 1.2.3.6 14.5-9.4 28.5-19.9 62.5-43.6 101.8-70.9 53.8-37.4 57.2-40.8 64.9-64.2 8.6-26.5 7.1-56.2-4.3-80.4-3.5-7.5-18.9-35.6-19.4-35.5-.1 0-3.6 5.8-7.8 12.8z"/></svg>