<svg version="1" xmlns="http://www.w3.org/2000/svg" width="981.333" height="981.333" viewBox="0 0 736.000000 736.000000"><path d="M354.8.7c-.1.5-3 2.6-6.3 4.8-3.3 2.2-6.2 4.3-6.5 4.6-.5.6-11.6 8.3-15.6 10.9-5.9 3.8-13.9 9.6-14.2 10.2-.2.5-1 .8-1.7.8s-1.5.4-1.7.8c-.1.4-3.9 3.2-8.3 6.2s-8.2 5.7-8.5 6c-.3.3-3 2.2-6 4.3-3 2-10 6.8-15.5 10.7-5.5 3.8-12.5 8.7-15.5 10.7-3 2.1-5.9 4.1-6.5 4.6-.5.5-6.6 4.7-13.5 9.5s-13.6 9.5-15 10.4c-1.4 1-5 3.5-8 5.5-3 2.1-5.6 4.1-5.8 4.5-.2.5-1 .8-1.7.8s-1.5.4-1.7.8c-.1.5-3.2 2.8-6.8 5.2-3.6 2.4-6.7 4.6-7 4.9-1.1 1.3-7 5.1-7.9 5.1-.5 0-1.1.4-1.3.8-.1.4-3.9 3.3-8.3 6.3-4.4 2.9-8.6 6-9.3 6.7-.8.6-2.3 1.7-3.5 2.4-9.8 5.2-25.2 20.2-31.5 30.8-4 6.7-9.9 20.1-10.8 24.4-.2 1-.8 3.3-1.3 5-.6 1.7-1.2 4.2-1.5 5.6-.3 1.4-1 5-1.6 8-2.6 13.1-2.9 38-.5 49 .3 1.4.8 3.8 1 5.5.6 3.6 1 5.5 1.7 7.5.3.8 1.7 5.3 3.2 10 2.9 8.7 13.3 30.9 18.4 39 .9 1.4 1.5 2.7 1.5 3 0 .3.8 1.7 1.8 3.2 1 1.4 1.9 3.1 1.9 3.7 0 .6.3 1.1.8 1.1.4 0 1.6 1.8 2.6 4 3.5 7.3 3.6 7.3 13.8-9.7 5.3-8.7 15.3-25.3 22.3-36.8 7-11.6 13.5-22.3 14.4-24 .9-1.6 1.8-3.2 2.1-3.5.3-.3 1.1-1.6 1.9-3 .8-1.4 7.1-11.7 13.9-23 6.9-11.3 13.3-21.9 14.2-23.5.9-1.7 4.7-7.8 8.4-13.7 3.6-5.9 6.6-11.2 6.6-11.7s.3-1.1.8-1.3c.9-.4 10.2-15.7 10.2-16.9 0-.5.5-.9 1-.9.6 0 1-.5 1-1.1 0-.6 1.4-3.1 3-5.6 1.7-2.4 3-4.6 3-4.9 0-.3 1.6-3 3.5-6s3.5-5.9 3.5-6.4c0-.6.4-1 .8-1 .5 0 1.7-1.8 2.7-4 1-2.2 2.2-4 2.7-4 .4 0 .8-.4.8-.8 0-.8 7.8-14.1 12.2-21 1-1.5 2.1-3.3 2.5-4.1 1.1-2.4 6.7-11.5 9.1-14.8 1.2-1.7 2.2-3.4 2.2-3.7 0-.3 2.9-5.3 6.5-11.1 3.6-5.7 6.5-10.9 6.5-11.5 0-.5.5-1 1-1 .6 0 1-.4 1-1 0-.5 1.7-3.6 3.7-6.7 2.1-3.2 4.4-7 5.3-8.5 1.8-3.3 4.5-7.7 19.8-33.1C351.4 8.9 356.4 0 356 0c-.5 0-1 .3-1.2.7zM381.6 1.2c3.9 6.1 15.9 23.4 16.6 23.6.4.2.8.8.8 1.3 0 1 3.5 6.2 5.8 8.7.6.7 1.2 1.7 1.2 2.2 0 .5.6 1.5 1.3 2.2 2.2 2.3 13.7 19.7 13.7 20.7 0 .5.4 1.1.9 1.3 1.1.4 43.1 63.6 43.1 64.9 0 .5.5.9 1 .9.6 0 1 .5 1 1 0 .6.9 2 2 3.2 1.1 1.2 2 2.8 2 3.5 0 .7.5 1.3 1 1.3.6 0 1 .5 1 1 0 .6.5 1.6 1 2.3.6.7 4.1 5.9 7.9 11.7 3.7 5.8 10.6 16.3 15.3 23.5 4.6 7.1 10.9 16.8 13.8 21.5 3 4.7 5.7 8.7 6 9 1 .9 3.1 4.5 3.6 6.2.4 1 1 1.8 1.5 1.8s.9.7.9 1.5.5 1.5 1 1.5c.6 0 1 .4 1 .9 0 .8 22.5 36.7 27.1 43.3 1 1.5 1.9 3 1.9 3.2 0 .3 2 3.5 4.5 7.2 2.5 3.6 4.5 6.7 4.5 6.9 0 .1 3.2 5.3 7 11.4 3.9 6.2 7 11.6 7 12.1 0 .6.3 1 .8 1 .4 0 2.2 2.6 4 5.8 1.8 3.1 4.1 6.9 5 8.4 1.7 2.7 23.9 39 27.7 45.3 11.4 19.1 15.2 25.3 16.1 27 .6 1.1 3.5 6 6.5 11 8.9 14.9 19.7 40 22.5 52.6.2 1.1.6 2.7.8 3.6 1.5 6.3 2.6 11.4 3.2 15.3.3 2.5.8 5.6 1 7 .6 3.8.5 21-.2 25l-.6 3.5 2.7-4.5c6.6-11.1 16.1-32.7 20.5-46.5 1.2-3.9 2.4-7.7 2.7-8.5.3-.8.7-2 .8-2.5.2-.6.8-3 1.5-5.5s1.4-5.4 1.6-6.5c.3-1.1 1.3-6.1 2.4-11 1.7-8.2 1.8-12.9 1.5-54-.1-24.8-.5-46.1-.8-47.5-.3-1.4-.8-5-1.1-8-1.7-14.3-10.5-49.3-13.5-53.5-.4-.6-1.6-3.3-2.6-6-2.2-6.2-12.6-26.9-13.7-27.3-.4-.2-.8-.8-.8-1.3 0-.6-1.8-3.7-4-7s-4-6.5-4-7-.4-.9-1-.9c-.5 0-1-.4-1-1 0-.5-.9-2-1.9-3.2-1-1.3-4.6-5.7-7.9-9.8-10.1-12.7-27-29-38.6-37.5-2.3-1.6-4.3-3.2-4.6-3.5-.3-.3-2.3-1.7-4.5-3-2.2-1.4-4.7-3-5.5-3.7-.8-.7-9.6-6.9-19.5-13.7-9.9-6.9-18.5-12.9-19.2-13.5-.7-.6-1.6-1.1-2.2-1.1-.5 0-1.1-.3-1.3-.8-.1-.4-3.9-3.3-8.3-6.3-4.4-3.1-11.1-7.8-15-10.4-3.8-2.7-9.2-6.4-12-8.3-2.7-1.9-8.5-6-13-9-4.4-3.1-8.1-6-8.3-6.4-.2-.4-.8-.8-1.4-.8-.5 0-1.5-.6-2.3-1.3-1.3-1.2-39.4-27.8-44-30.7-3-1.9-33.8-23.5-38.5-26.9-1.9-1.4-5.1-3.7-7-5-1.9-1.3-7-4.8-11.4-7.9-4.3-3-7.4-4.8-7-4zM66.3 243.2c-7.5 15-9.4 19.2-13.2 29.6-3.1 8.6-7.9 24.4-8.7 28.6-.2 1.4-.9 3.8-1.5 5.3-.6 1.6-1 2.9-.9 3.1.2.2-.9 7.3-1.7 10.7-1.9 8.9-2.6 64.4-1 82 .5 4.9 1 10.8 1.2 13 .2 3.7 1.3 12.4 2.1 17 1.2 7.1 1.6 9.4 2.6 13 .5 2.2 1.2 5.1 1.5 6.5.8 3.9 1.1 5.5 1.3 5.7.2.2.3.6.4 1 1.9 8.6 10 29 16.6 41.8 8.4 16.1 9.4 17.9 10.8 18.8.6.4 1.2 1.3 1.2 1.9 0 1.3 8.3 12.9 16.1 22.3 13 15.9 28.8 30.3 46.6 42.6 6 4 11.7 8.1 12.7 9.1 1.1 1 2.3 1.8 2.8 1.8.4 0 1.6.7 2.5 1.5 1.9 1.5 16.8 12 27.8 19.5 3.6 2.5 7.3 5.1 8.3 5.8 9.3 6.7 17.4 12.2 18.1 12.2.5 0 1.1.4 1.3.8.2.5 7.7 6 16.8 12.2 9.1 6.3 17 11.8 17.5 12.2 1 .8 23.7 16.6 58.4 40.8 26.7 18.5 38.5 26.8 39.8 28 .7.5 1.5 1 1.9 1 .3 0 2 1.1 3.6 2.5 1.7 1.4 3.3 2.4 3.5 2.1.6-.5-3.7-6.9-4.9-7.4-.4-.2-.8-.8-.8-1.3 0-.6-4.9-8.1-10.8-16.7-11.8-17.1-34.1-50.2-35.7-53-.5-.9-1.2-1.9-1.6-2.2-1.2-1.2-6.9-10.2-6.9-11.1 0-.5-.3-.9-.8-.9-.4 0-1.6-1.6-2.6-3.5-1.1-1.9-2.3-3.5-2.8-3.5-.4 0-.8-.5-.8-1 0-.6-5.3-9-11.7-18.8-6.5-9.8-12.2-18.5-12.8-19.4-.5-.9-4.6-7-9-13.7-13.3-20.2-30.8-47.3-52-80.6-3.5-5.5-6.9-10.5-7.4-11.2-.6-.7-1.1-1.5-1.1-1.8 0-.3-1.8-3.3-4-6.5s-4-6.1-4-6.4c0-.2-2.1-3.8-4.7-7.8-2.7-4.1-5.3-8.3-6-9.3-.6-1.1-4.9-8-9.5-15.3-4.6-7.3-9-14.5-9.9-16-6.8-11.4-28.1-45.9-28.9-46.9-.5-.7-1-1.4-1-1.7 0-.6-9.2-15.8-10-16.6-.3-.3-1.8-3-3.4-6-1.6-3-3.4-6.2-4.1-7-1.9-2.5-8.5-14.1-8.5-15 0-.5-.4-1-.8-1.2-.5-.2-2.1-2.8-3.5-5.8-1.5-3-3.1-6.2-3.6-7-2.2-3.8-6.1-13.3-9-22-5.8-17.7-5.2-15.5-7.1-25.5-.6-2.8-1.2-6.1-1.5-7.5-.5-2.5-1.8-17.6-1.7-19.5 0-.6.3-4.3.5-8.3.3-3.9.5-7.2.4-7.2-.2 0-3 5.5-6.4 12.2zM586.3 396.2c-.9 1.8-2.2 4.1-2.8 5-.5.9-8.4 14-17.5 29-9 15-16.7 27.5-17 27.8-.3.3-1.7 2.6-3 5.2-1.4 2.7-2.8 4.8-3.2 4.8-.5 0-.8.5-.8 1 0 .6-2.2 4.7-5 9.1-2.7 4.4-5 8.5-5 9s-.4.9-.9.9-1.2.8-1.5 1.7c-.3 1-1.2 2.7-1.9 3.8-7.9 12.9-10.7 17.7-10.7 18.5 0 .4-.4 1-.9 1.2-.4.1-1.9 2.2-3.2 4.5-1.3 2.4-7.3 12.4-13.4 22.4-6 10-11.9 19.6-13 21.5-1.1 1.8-3.9 6.5-6.2 10.3-2.4 3.9-4.3 7.3-4.3 7.6 0 .3-.4 1.1-1 1.8-1.4 1.7-8 11.8-8 12.3 0 .2-1.8 3.3-4 6.9-2.2 3.6-4 6.9-4 7.4s-.4 1.1-.8 1.3c-.5.1-3.8 5.2-7.4 11.3L435.5 646c-4.8 8-9.6 15.8-10.5 17.5-1 1.6-6.1 10.2-11.5 19s-10.5 17.2-11.4 18.7c-.9 1.5-4 6.6-6.8 11.4-2.9 4.7-5.3 9-5.3 9.5s-.4.9-.9.9-1.2.8-1.5 1.7c-.8 2.2-2.8 5.6-4.5 7.7-2.5 3-.5 3.4 3.4.6 2.2-1.5 8.4-5.8 13.7-9.4 5.4-3.7 10.4-7.3 11.2-8.1.8-.8 1.7-1.5 2-1.5.3 0 4.1-2.5 8.3-5.5 4.3-3 8.5-5.9 9.3-6.5.8-.6 7.1-5 14-9.8 17.2-11.9 18.1-12.6 19.9-13.7.9-.6 1.8-1.2 2.1-1.5.3-.3 3.4-2.5 7-5 3.6-2.4 6.7-4.8 6.8-5.2.2-.4.8-.8 1.3-.8.7 0 8.4-5.1 12.4-8.3.6-.4 10.7-7.5 22.5-15.6 11.8-8.2 22.2-15.5 23.1-16.3.9-.7 2.3-1.8 3.2-2.3 2.1-1.3 11.7-7.9 18.8-13 3.1-2.2 6.5-4.6 7.5-5.3 7.3-4.8 22-15.6 22.2-16.3.2-.5 1-.9 1.8-.9s1.4-.3 1.4-.8c0-.4 2.2-3 4.8-5.8 9.8-10.6 13.5-16.9 18.7-31.4 2.9-8.3 5.3-16.6 6.1-21.6.3-2.1.7-4.1.9-4.4.6-1 1.8-16.4 1.8-23.5.1-8-1-24.3-1.7-25.3-.2-.4-.7-2.6-1.1-4.9-1.2-8.4-7.2-26.2-11-33.1-1.4-2.5-2.5-5-2.5-5.7 0-.8-.4-1.5-.8-1.7-.4-.2-2.1-3-3.8-6.3-3.2-6.1-7.3-13.6-10.5-19-1-1.7-2.6-4.4-3.4-6.2-2.8-5.4-4.1-5.9-6.2-2.1z"/></svg>